<svg xmlns="http://www.w3.org/2000/svg" width="500" height="500" viewBox="-0.52 -0.02 500.04 500.04"><g fill="none"><path fill="#a71930" d="m444.25 337.16.02 13.4c0 33.73-22.74 44.4-32.68 47.44-7.26 2.05-15.9 3.1-25.09 3.56H84.79v-62l278.36.02c7.56-.19 12.32-2.65 14.48-7.33.87-2.46 1.1-4.43 1.1-7.58v-13.23c-4.44 2.96-12.32 5.44-12.32 5.44-17.07 6.03-48.68 1.31-61.7-9-12.95-7.37-23.15-23.07-24.2-40.24V163.37a8.1 8.1 0 0 0-8.08-8.1h-16.6v-53.32h90l-.1 142.32c-.02 8.51 7.57 15.37 16.54 15.37 3.12 0 6.02-.84 8.5-2.27a15.8 15.8 0 0 0 7.94-11.7q.09-.94.11-1.9a88 88 0 0 0 .12-4.9V101.95h65.14zm-191.62-73.64h15.09v51.3h-59.7a27.5 27.5 0 0 1-25.75-17.96 27 27 0 0 1-1.73-9.58V171.67c-.2-8.35-7.3-15.05-16.03-15.05-8.86 0-16.05 6.88-16.05 15.37l-.02 1.5v141.74H84.81v-151.7c0-4.47-3.6-8.1-8.08-8.1H55l.02-53.48h93.39v10.18c15.19-11.62 37.53-15.77 58.3-10.51 13.13 3.42 22.87 9.53 30.55 20.73a43 43 0 0 1 7.28 20.9v46.22l-.01 12.23.01 7.62v38.89l-.01 5.76.01.34v1.12a8.1 8.1 0 0 0 8.1 8.09"/><path fill="#fffffe" d="M309.13 300.05c-10.9-6.2-18.77-19.37-19.64-32.81V163.38a17.1 17.1 0 0 0-17.06-17.1h-7.62v-35.33h72.03l-.1 133.4c0 6.2 2.5 12.12 7 16.66a26.24 26.24 0 0 0 31.51 4.17 25 25 0 0 0 12.36-18.39l.04-.25.15-2.3.12-5.37V110.95h47.2c0 16.64.15 239.61.15 239.61 0 26.76-16.49 35.83-26.32 38.85-6.38 1.8-14.32 2.72-22.76 3.16-.59 0-275.56.03-292.43 0v-44h269.39c14.1-.34 20.07-7 22.63-12.53l.19-.4.13-.4c1.34-3.82 1.6-6.89 1.6-10.57v-30.09l-13.97 9.37c-2.43 1.64-7.44 3.54-10.04 4.36l-.28.09c-14.06 4.98-42.38.93-53.14-7.59l-.53-.41zm-73.57-44.62a17.1 17.1 0 0 0 17.07 17.1h6.1v33.29h-50.7a18.6 18.6 0 0 1-17.33-12.1 18 18 0 0 1-1.18-6.44V171.67c-.3-13.35-11.52-24.05-25-24.05-13.81 0-25.04 10.94-25.05 24.37l-.01 1.44v132.8H93.79v-142.7a17.1 17.1 0 0 0-17.06-17.1H64v-35.48h75.44v19.4l14.44-11.07c13.17-10.08 32.57-13.51 50.64-8.94 11.6 3.03 19.2 8.15 25.33 17.1a33 33 0 0 1 5.08 11.87l.64 4.4v45.76l-.01 12.2.01 7.66v38.88l-.01 5.94.01.38z"/></g></svg>